<?xml version="1.0" standalone="no"?>
<!DOCTYPE svg PUBLIC "-//W3C//DTD SVG 20010904//EN"
 "http://www.w3.org/TR/2001/REC-SVG-20010904/DTD/svg10.dtd">
<svg version="1.0" xmlns="http://www.w3.org/2000/svg"
 width="300.000000pt" height="49.000000pt" viewBox="0 0 300.000000 49.000000"
 preserveAspectRatio="xMidYMid meet">

<g transform="translate(0.000000,49.000000) scale(0.100000,-0.100000)"
fill="#e0394d" stroke="none">
<path d="M45 433 c-19 -4 -20 -12 -21 -203 l-1 -200 58 0 58 0 -6 70 -6 70 31
0 c28 0 32 -5 59 -70 l28 -70 58 0 c31 0 57 2 57 5 0 3 -16 38 -35 77 l-36 71
27 28 c48 50 50 138 4 187 -11 11 -37 26 -57 31 -36 10 -175 13 -218 4z m159
-83 c39 -14 53 -53 32 -85 -14 -21 -24 -25 -61 -25 l-45 0 0 53 c0 30 3 57 7
60 9 10 38 9 67 -3z"/>
<path d="M703 235 l0 -205 74 0 73 0 0 72 c0 81 7 80 41 -2 12 -30 26 -59 30
-64 5 -5 22 20 40 57 43 92 52 94 48 11 l-4 -69 73 -3 72 -3 0 206 0 206 -67
-3 -68 -3 -40 -72 c-22 -40 -42 -72 -45 -73 -3 0 -25 34 -48 75 l-44 75 -67 0
-68 0 0 -205z"/>
<path d="M1210 234 l0 -204 148 0 149 0 10 55 c5 30 7 57 5 60 -3 3 -41 5 -84
5 -63 0 -78 3 -78 15 0 12 14 15 69 15 l69 0 4 55 3 55 -67 0 c-66 0 -94 13
-67 31 8 5 44 7 80 3 l67 -6 -5 49 c-2 26 -6 53 -8 60 -3 8 -46 12 -149 11
l-146 0 0 -204z"/>
<path d="M1568 256 c-1 -102 -2 -194 -2 -203 -1 -16 11 -18 107 -21 166 -4
219 18 263 112 26 56 30 105 12 157 -33 100 -90 130 -260 137 l-118 5 -2 -187z
m240 85 l3 -51 55 0 54 0 0 -49 0 -50 -52 -3 -53 -3 -3 -52 -3 -53 -49 0 -49
0 -3 52 -3 53 -52 3 -53 3 0 50 0 49 56 0 55 0 -1 48 c-1 26 -1 49 -1 52 1 3
22 4 48 4 l48 -1 3 -52z"/>
<path d="M2022 418 c-7 -7 -12 -21 -12 -33 0 -30 19 -45 57 -45 43 0 61 31 38
66 -17 26 -62 33 -83 12z"/>
<path d="M455 300 c-64 -42 -85 -142 -45 -208 22 -36 87 -71 132 -72 15 0 46
7 68 16 42 17 50 36 27 68 -11 15 -17 16 -35 7 -30 -16 -88 -13 -107 5 -22 23
-4 34 56 34 26 0 61 3 79 6 32 7 32 8 27 53 -4 36 -13 52 -41 78 -30 28 -43
33 -83 33 -31 0 -59 -7 -78 -20z m105 -71 c14 -25 15 -25 -37 -34 -45 -7 -52
0 -37 39 9 24 61 21 74 -5z"/>
<path d="M2665 300 c-47 -24 -45 -24 -45 -4 0 13 -7 15 -31 10 -17 -3 -40 -6
-51 -6 -17 0 -18 -8 -16 -132 l3 -133 48 -3 47 -3 0 90 c0 86 1 91 25 107 43
28 55 7 55 -102 l0 -94 50 0 50 0 0 90 c0 85 1 90 25 106 43 28 55 7 55 -102
l0 -94 50 0 50 0 0 114 c0 63 -3 122 -6 131 -4 8 -20 23 -36 31 -35 18 -76 12
-113 -18 l-25 -20 -18 21 c-26 31 -70 36 -117 11z"/>
<path d="M2373 303 c-9 -3 -13 -30 -13 -87 0 -87 -8 -106 -47 -106 -34 0 -46
33 -41 116 l3 74 -47 0 -47 0 -7 -46 c-3 -25 -4 -76 -1 -112 4 -56 9 -70 32
-89 33 -29 77 -29 121 -2 19 11 35 18 35 15 1 -3 2 -12 3 -18 2 -19 96 -24 96
-6 0 8 1 69 3 136 l3 122 -27 0 c-15 0 -33 2 -41 4 -7 3 -19 2 -25 -1z"/>
<path d="M2010 165 l0 -135 50 0 50 0 0 135 0 135 -50 0 -50 0 0 -135z"/>
</g>
</svg>
